<?xml version="1.0" encoding="utf-8"?>
<!-- Generator: Adobe Illustrator 25.2.1, SVG Export Plug-In . SVG Version: 6.00 Build 0)  -->
<svg version="1.1" id="Layer_1" xmlns="http://www.w3.org/2000/svg" xmlns:xlink="http://www.w3.org/1999/xlink" x="0px" y="0px"
	 viewBox="0 0 209.5 200" style="enable-background:new 0 0 209.5 200;" xml:space="preserve">
<style type="text/css">
	.st0{fill:#5A5A5C;}
</style>
<g>
	<g>
		<path class="st0" d="M36.8,175.8c-6.7,0-12.1,5.4-12.1,12.1S30.1,200,36.8,200c6.7,0,12.1-5.4,12.1-12.1c0,0,0,0,0,0
			C48.9,181.2,43.5,175.8,36.8,175.8C36.8,175.8,36.8,175.8,36.8,175.8z"/>
		<path class="st0" d="M70.6,108.1c-6.7,0-12.1,5.4-12.1,12.1c0,6.7,5.4,12.1,12.1,12.1c6.7,0,12.1-5.4,12.1-12.1c0,0,0,0,0,0
			C82.7,113.5,77.3,108.1,70.6,108.1C70.6,108.1,70.6,108.1,70.6,108.1z"/>
		<path class="st0" d="M70.6,142c-6.7,0-12.1,5.4-12.1,12.1s5.4,12.1,12.1,12.1c6.7,0,12.1-5.4,12.1-12.1c0,0,0,0,0,0
			C82.7,147.4,77.3,142,70.6,142C70.6,142,70.6,142,70.6,142z"/>
		<path class="st0" d="M104.4,142c-6.7,0-12.1,5.4-12.1,12.1s5.4,12.1,12.1,12.1c6.7,0,12.1-5.4,12.1-12.1c0,0,0,0,0,0
			C116.5,147.4,111.1,142,104.4,142L104.4,142z"/>
		<path class="st0" d="M36.8,74.2c-6.7,0-12.1,5.4-12.1,12.1c0,6.7,5.4,12.1,12.1,12.1c6.7,0,12.1-5.4,12.1-12.1c0,0,0,0,0,0
			C48.9,79.6,43.5,74.2,36.8,74.2C36.8,74.2,36.8,74.2,36.8,74.2z"/>
		<path class="st0" d="M70.6,175.8c-6.7,0-12.1,5.4-12.1,12.1S63.9,200,70.6,200c6.7,0,12.1-5.4,12.1-12.1c0,0,0,0,0,0
			C82.7,181.2,77.3,175.8,70.6,175.8C70.6,175.8,70.6,175.8,70.6,175.8z"/>
		<path class="st0" d="M36.8,108.1c-6.7,0-12.1,5.4-12.1,12.1c0,6.7,5.4,12.1,12.1,12.1c6.7,0,12.1-5.4,12.1-12.1c0,0,0,0,0,0
			C48.9,113.5,43.5,108.1,36.8,108.1C36.8,108.1,36.8,108.1,36.8,108.1z"/>
		<path class="st0" d="M36.8,142c-6.7,0-12.1,5.4-12.1,12.1s5.4,12.1,12.1,12.1c6.7,0,12.1-5.4,12.1-12.1c0,0,0,0,0,0
			C48.9,147.4,43.5,142,36.8,142C36.8,142,36.8,142,36.8,142z"/>
		<circle class="st0" cx="105" cy="120.2" r="12.1"/>
		<circle class="st0" cx="105" cy="187.9" r="12.1"/>
		<circle class="st0" cx="105" cy="86.4" r="12.1"/>
		<circle class="st0" cx="71.2" cy="86.4" r="12.1"/>
		<path class="st0" d="M138.9,175.8c-6.7,0-12.1,5.4-12.1,12.1s5.4,12.1,12.1,12.1c6.7,0,12.1-5.4,12.1-12.1c0,0,0,0,0,0
			C151,181.2,145.6,175.8,138.9,175.8C138.9,175.8,138.9,175.8,138.9,175.8z"/>
		<path class="st0" d="M172.7,108.1c-6.7,0-12.1,5.4-12.1,12.1c0,6.7,5.4,12.1,12.1,12.1c6.7,0,12.1-5.4,12.1-12.1c0,0,0,0,0,0
			C184.8,113.5,179.4,108.1,172.7,108.1C172.7,108.1,172.7,108.1,172.7,108.1z"/>
		<path class="st0" d="M172.7,142c-6.7,0-12.1,5.4-12.1,12.1s5.4,12.1,12.1,12.1c6.7,0,12.1-5.4,12.1-12.1c0,0,0,0,0,0
			C184.8,147.4,179.4,142,172.7,142C172.7,142,172.7,142,172.7,142z"/>
		<path class="st0" d="M138.9,74.2c-6.7,0-12.1,5.4-12.1,12.1c0,6.7,5.4,12.1,12.1,12.1c6.7,0,12.1-5.4,12.1-12.1c0,0,0,0,0,0
			C151,79.6,145.6,74.2,138.9,74.2C138.9,74.2,138.9,74.2,138.9,74.2z"/>
		<path class="st0" d="M172.3,74.2c-6.7,0-12.1,5.4-12.1,12.1c0,6.7,5.4,12.1,12.1,12.1c6.7,0,12.1-5.4,12.1-12.1c0,0,0,0,0,0
			C184.4,79.6,179,74.2,172.3,74.2C172.3,74.2,172.3,74.2,172.3,74.2z"/>
		<path class="st0" d="M172.7,175.8c-6.7,0-12.1,5.4-12.1,12.1s5.4,12.1,12.1,12.1c6.7,0,12.1-5.4,12.1-12.1c0,0,0,0,0,0
			C184.8,181.2,179.4,175.8,172.7,175.8C172.7,175.8,172.7,175.8,172.7,175.8z"/>
		<path class="st0" d="M138.9,108.1c-6.7,0-12.1,5.4-12.1,12.1c0,6.7,5.4,12.1,12.1,12.1c6.7,0,12.1-5.4,12.1-12.1c0,0,0,0,0,0
			C151,113.5,145.6,108.1,138.9,108.1C138.9,108.1,138.9,108.1,138.9,108.1z"/>
		<path class="st0" d="M138.9,142c-6.7,0-12.1,5.4-12.1,12.1s5.4,12.1,12.1,12.1c6.7,0,12.1-5.4,12.1-12.1c0,0,0,0,0,0
			C151,147.4,145.6,142,138.9,142C138.9,142,138.9,142,138.9,142z"/>
	</g>
	<g>
		<path class="st0" d="M62.3,59.6l-21.6-0.1C40.8,38.9,54.2,0,104.8,0c50.6,0,64,38.9,64,59.5h-21.6c0-3.8-1.6-37.9-42.4-37.9
			C64,21.6,62.4,55.7,62.3,59.6z"/>
	</g>
</g>
</svg>
