<?xml version="1.0" encoding="utf-8"?>
<!-- Generator: Adobe Illustrator 25.2.1, SVG Export Plug-In . SVG Version: 6.00 Build 0)  -->
<svg version="1.1" id="Layer_1" xmlns="http://www.w3.org/2000/svg" xmlns:xlink="http://www.w3.org/1999/xlink" x="0px" y="0px"
	 viewBox="0 0 200 200" style="enable-background:new 0 0 200 200;" xml:space="preserve">
<style type="text/css">
	.st0{fill:#FFFFFF;}
</style>
<g>
	<path class="st0" d="M8.75,0v91.67h82.95V29.89L61.96,0H8.75z M75.12,75H25.34V16.67h24.88v25h24.89V75z"/>
	<path class="st0" d="M191.25,29.89L161.5,0h-53.21v91.67h82.95V29.89z M174.66,75h-49.77V16.67h24.89v25h24.89V75z"/>
	<path class="st0" d="M8.75,108.33V200h82.95v-61.78l-29.75-29.89H8.75z M75.12,183.33H25.34V125h24.88v25h24.89V183.33z"/>
	<path class="st0" d="M161.5,108.33h-53.21V200h82.95v-61.78L161.5,108.33z M174.66,183.33h-49.77V125h24.89v25h24.89V183.33z"/>
</g>
</svg>
