<?xml version="1.0" encoding="utf-8"?>
<!-- Generator: Adobe Illustrator 25.3.1, SVG Export Plug-In . SVG Version: 6.00 Build 0)  -->
<svg version="1.1" id="Layer_1" xmlns="http://www.w3.org/2000/svg" xmlns:xlink="http://www.w3.org/1999/xlink" x="0px" y="0px"
	 viewBox="0 0 209.5 200" style="enable-background:new 0 0 209.5 200;" xml:space="preserve">
<style type="text/css">
	.st0{fill:#5A5A5C;}
</style>
<g>
	<path class="st0" d="M164.8,110.9c-22.1,0-39.9,17.9-39.9,39.9c0,22.1,17.9,39.9,39.9,39.9c22.1,0,39.9-17.9,39.9-39.9
		C204.8,128.8,186.9,110.9,164.8,110.9z M185.5,150.9c0,2.2-1.8,4.1-4.1,4.1h-12.6v12.6c0,1.1-0.5,2.1-1.2,2.9
		c-0.7,0.7-1.8,1.2-2.9,1.2c-2.2,0-4.1-1.8-4.1-4.1v-12.6h-12.6c-2.2,0-4.1-1.8-4.1-4.1v0c0-2.2,1.8-4.1,4.1-4.1h12.6v-12.6
		c0-1.1,0.5-2.1,1.2-2.9c0.7-0.7,1.8-1.2,2.9-1.2c2.2,0,4.1,1.8,4.1,4.1v12.6h12.6C183.7,146.8,185.5,148.6,185.5,150.9L185.5,150.9
		z"/>
	<g>
		<path class="st0" d="M117.3,150.9c0-23.7,17.5-43.4,40.2-47V51.8c0-1.1-0.9-2-2-2H82c-3.4,0-6.8-1.2-9.4-3.5L59.1,34.6
			c-1.1-1-2.5-1.5-4-1.5H6.8c-1.1,0-2,0.9-2,2v122.5c0,1.2,0.9,2.2,2,2.2h111.4C117.6,157,117.3,154,117.3,150.9z"/>
		<path class="st0" d="M64.5,28.4L78,40.1c1.1,1,2.5,1.5,4,1.5h73.5c5.6,0,10.2,4.6,10.2,10.2v51.6c6.2,0.1,12.1,1.4,17.5,3.7V27.9
			c0-1.1-0.9-2-2-2h-73.5c-3.4,0-6.8-1.2-9.4-3.5L84.8,10.7c-1.1-1-2.5-1.5-4-1.5H32.5c-1.1,0-2,0.9-2,2v13.7h24.7
			C58.6,24.9,61.9,26.2,64.5,28.4z"/>
	</g>
</g>
</svg>
