<?xml version="1.0" encoding="utf-8"?>
<!-- Generator: Adobe Illustrator 25.3.1, SVG Export Plug-In . SVG Version: 6.00 Build 0)  -->
<svg version="1.1" id="Layer_1" xmlns="http://www.w3.org/2000/svg" xmlns:xlink="http://www.w3.org/1999/xlink" x="0px" y="0px"
	 viewBox="0 0 209.5 200" style="enable-background:new 0 0 209.5 200;" xml:space="preserve">
<style type="text/css">
	.st0{fill:#5A5A5C;}
</style>
<g>
	<path class="st0" d="M145.6,116.7c-22.1,0-39.9,17.9-39.9,39.9c0,22.1,17.9,39.9,39.9,39.9c22.1,0,39.9-17.9,39.9-39.9
		C185.5,134.6,167.7,116.7,145.6,116.7z M166.3,156.6c0,2.2-1.8,4.1-4.1,4.1h-12.6v12.6c0,1.1-0.5,2.1-1.2,2.9
		c-0.7,0.7-1.8,1.2-2.9,1.2c-2.2,0-4.1-1.8-4.1-4.1v-12.6H129c-2.2,0-4.1-1.8-4.1-4.1v0c0-2.2,1.8-4.1,4.1-4.1h12.6V140
		c0-1.1,0.5-2.1,1.2-2.9c0.7-0.7,1.8-1.2,2.9-1.2c2.2,0,4.1,1.8,4.1,4.1v12.6h12.6C164.5,152.5,166.3,154.4,166.3,156.6L166.3,156.6
		z"/>
	<path class="st0" d="M55.4,142.5c0,2.2,1.8,3.9,3.9,3.9h38.1c0.5-2.7,1.3-5.3,2.3-7.8H59.3C57.2,138.6,55.4,140.4,55.4,142.5z"/>
	<path class="st0" d="M119.2,114.4H59.3c-2.2,0-3.9,1.8-3.9,3.9c0,2.2,1.8,3.9,3.9,3.9h50.6C112.7,119.2,115.8,116.6,119.2,114.4z"
		/>
	<path class="st0" d="M53.2,173.9c-3.3,0-6.4-1.4-8.6-3.6c-2.2-2.2-3.6-5.3-3.6-8.6V26.1c0-3.3,1.4-6.4,3.6-8.6
		c2.2-2.2,5.3-3.6,8.6-3.6h72.4V27c0,4.8,2,9.2,5.1,12.4c3.2,3.2,7.5,5.1,12.4,5.1h12.7v62.7c3.6,0.7,7.1,1.8,10.4,3.2V42.2
		l-1.5-3.6L132.1,5l-1.6-1.6h-2.2H53.2c-6.2,0-11.9,2.5-16,6.6c-4.1,4.1-6.6,9.8-6.6,16v135.7c0,6.2,2.5,11.9,6.6,16
		c4.1,4.1,9.8,6.6,16,6.6H105c-2.2-3.2-4-6.7-5.4-10.4H53.2z"/>
	<path class="st0" d="M137.6,65.9H59.3c-2.2,0-3.9,1.8-3.9,3.9c0,2.2,1.8,3.9,3.9,3.9h78.3c2.2,0,3.9-1.8,3.9-3.9
		C141.5,67.6,139.8,65.9,137.6,65.9z"/>
	<path class="st0" d="M125.9,49.2c2.2,0,3.9-1.8,3.9-3.9v0c0-2.2-1.8-3.9-3.9-3.9H71.1c-2.2,0-3.9,1.8-3.9,3.9v0
		c0,2.2,1.8,3.9,3.9,3.9H125.9z"/>
	<path class="st0" d="M141.5,94c0-2.2-1.8-3.9-3.9-3.9H59.3c-2.2,0-3.9,1.8-3.9,3.9s1.8,3.9,3.9,3.9h78.3
		C139.8,97.9,141.5,96.2,141.5,94z"/>
</g>
</svg>
