<?xml version="1.0" encoding="utf-8"?>
<!-- Generator: Adobe Illustrator 25.2.1, SVG Export Plug-In . SVG Version: 6.00 Build 0)  -->
<svg version="1.1" id="Layer_1" xmlns="http://www.w3.org/2000/svg" xmlns:xlink="http://www.w3.org/1999/xlink" x="0px" y="0px"
	 viewBox="0 0 209.52 200" style="enable-background:new 0 0 209.52 200;" xml:space="preserve">
<style type="text/css">
	.st0{fill:#5A5A5C;}
</style>
<g>
	<path class="st0" d="M104.76,0C49.46,0,4.55,44.81,4.55,100c0,55.18,44.9,100,100.21,100s100.21-44.81,100.21-100
		C204.97,44.81,160.07,0,104.76,0z M104.76,188.67C55.66,188.67,15.9,149,15.9,100c0-49,39.76-88.68,88.86-88.68
		c49.1,0,88.86,39.68,88.86,88.68C193.62,149,153.86,188.67,104.76,188.67z"/>
	<path class="st0" d="M131.5,121.87H78.03c-17.35,0-32.23,11.07-37.9,26.48c2.28,3.04,4.79,5.92,7.52,8.65
		c15.2,15.16,35.63,23.59,57.12,23.59c21.5,0,41.91-8.43,57.12-23.59c2.72-2.73,5.24-5.61,7.52-8.65
		C163.73,132.94,148.85,121.87,131.5,121.87z"/>
	<path class="st0" d="M104.76,110.04c21.1,0,38.21-17.07,38.21-38.13c0-21.06-17.11-38.13-38.21-38.13
		c-21.1,0-38.21,17.07-38.21,38.13C66.55,92.97,83.66,110.04,104.76,110.04z"/>
</g>
</svg>
