<?xml version="1.0" encoding="utf-8"?>
<!-- Generator: Adobe Illustrator 25.2.1, SVG Export Plug-In . SVG Version: 6.00 Build 0)  -->
<svg version="1.1" id="Layer_1" xmlns="http://www.w3.org/2000/svg" xmlns:xlink="http://www.w3.org/1999/xlink" x="0px" y="0px"
	 viewBox="0 0 412.11 269.95" style="enable-background:new 0 0 412.11 269.95;" xml:space="preserve">
<style type="text/css">
	.st0{fill:#F89522;}
	.st1{fill:#FFFFFF;}
	.st2{fill:#F06724;}
</style>
<g>
	<g>
		<path class="st0" d="M282.46,81.3c0.6-2.95,3.23-4.68,6.06-4.1l0.12,0.02c2.83,0.58,4.56,3.21,3.96,6.15
			c-0.6,2.95-3.23,4.68-6.06,4.1l-0.12-0.02C283.6,86.87,281.86,84.24,282.46,81.3z"/>
		<path class="st0" d="M289.21,65.76c1.74-2.45,4.84-2.97,7.2-1.3l0.1,0.07c2.35,1.67,2.88,4.77,1.13,7.22
			c-1.74,2.45-4.84,2.97-7.2,1.3l-0.1-0.07C287.99,71.31,287.47,68.21,289.21,65.76z"/>
		<path class="st0" d="M301.59,54.32c2.59-1.54,5.64-0.76,7.11,1.73l0.06,0.1c1.47,2.48,0.7,5.53-1.89,7.07
			c-2.59,1.53-5.63,0.76-7.11-1.73l-0.06-0.1C298.23,58.91,299.01,55.86,301.59,54.32z"/>
		<path class="st0" d="M317.58,48.87c2.98-0.36,5.46,1.59,5.8,4.45l0.01,0.12c0.34,2.87-1.6,5.34-4.59,5.7
			c-2.98,0.36-5.46-1.59-5.8-4.45l-0.01-0.12C312.65,51.7,314.6,49.22,317.58,48.87z"/>
		<path class="st0" d="M334.42,50.35c2.88,0.88,4.35,3.66,3.5,6.42l-0.04,0.12c-0.85,2.76-3.62,4.24-6.5,3.35
			c-2.87-0.88-4.35-3.66-3.5-6.42l0.04-0.12C328.76,50.94,331.54,49.47,334.42,50.35z"/>
		<path class="st0" d="M349.23,58.54c2.27,1.97,2.5,5.1,0.61,7.29l-0.08,0.09c-1.89,2.18-5.03,2.41-7.3,0.44
			c-2.27-1.97-2.5-5.11-0.61-7.29l0.08-0.09C343.82,56.79,346.96,56.57,349.23,58.54z"/>
		<path class="st0" d="M359.42,71.95c1.28,2.72,0.21,5.68-2.4,6.91l-0.11,0.05c-2.61,1.23-5.57,0.16-6.85-2.56
			c-1.28-2.72-0.21-5.68,2.4-6.91l0.11-0.05C355.18,68.17,358.14,69.23,359.42,71.95z"/>
		<path class="st0" d="M363.21,87.08c0.46,2.97-1.39,5.51-4.24,5.96l-0.12,0.02c-2.85,0.45-5.39-1.41-5.86-4.38
			c-0.46-2.97,1.39-5.51,4.24-5.96l0.12-0.02C360.21,82.25,362.75,84.11,363.21,87.08z"/>
		<path class="st0" d="M360.24,105.04c-1.15,2.78-4.06,3.98-6.73,2.87l-0.11-0.05c-2.67-1.11-3.87-4.01-2.72-6.79
			c1.15-2.78,4.06-3.98,6.73-2.87l0.11,0.05C360.19,99.35,361.39,102.26,360.24,105.04z"/>
		<path class="st0" d="M350.68,118.98c-2.18,2.08-5.32,2-7.32-0.09l-0.08-0.09c-1.99-2.09-1.92-5.24,0.26-7.31
			c2.18-2.08,5.32-2,7.32,0.09l0.08,0.09C352.93,113.76,352.85,116.9,350.68,118.98z"/>
		<path class="st0" d="M336.34,127.84c-2.83,1.02-5.67-0.33-6.65-3.05l-0.04-0.11c-0.97-2.72,0.37-5.56,3.2-6.58
			c2.83-1.01,5.68,0.33,6.65,3.05l0.04,0.11C340.52,123.98,339.17,126.83,336.34,127.84z"/>
		<path class="st0" d="M319.6,130.16c-3-0.22-5.06-2.6-4.85-5.48l0.01-0.12c0.21-2.88,2.59-4.94,5.59-4.72
			c3,0.22,5.06,2.6,4.85,5.48l-0.01,0.12C324.98,128.32,322.6,130.38,319.6,130.16z"/>
		<path class="st0" d="M303.34,129.56c-2.65-1.41-3.57-4.42-2.22-6.97l0.06-0.11c1.36-2.55,4.37-3.47,7.02-2.05
			c2.65,1.41,3.57,4.42,2.22,6.97l-0.06,0.11C309,130.06,305.99,130.98,303.34,129.56z"/>
		<path class="st0" d="M289.02,129.56c-2.65-1.41-3.57-4.42-2.22-6.97l0.06-0.11c1.36-2.55,4.37-3.47,7.02-2.05
			c2.65,1.41,3.57,4.42,2.22,6.97l-0.06,0.11C294.68,130.06,291.67,130.98,289.02,129.56z"/>
		<path class="st0" d="M274.91,129.56c-2.65-1.41-3.57-4.42-2.22-6.97l0.06-0.11c1.36-2.55,4.37-3.47,7.02-2.05
			c2.65,1.41,3.57,4.42,2.22,6.97l-0.06,0.11C280.58,130.06,277.57,130.98,274.91,129.56z"/>
		<path class="st0" d="M282.91,99.48c-0.74-2.91,0.87-5.62,3.67-6.33l0.12-0.03c2.8-0.71,5.5,0.9,6.24,3.81
			c0.74,2.91-0.87,5.62-3.67,6.33l-0.12,0.03C286.35,104,283.65,102.4,282.91,99.48z"/>
		<path class="st0" d="M300.04,116.91l-11.81-2.35c-1.64-0.33-1.85-2.39-0.37-3.6l11.82-9.69c1.48-1.21,3.46-0.6,3.46,1.07
			l-0.01,12.04C303.13,115.88,301.51,117.2,300.04,116.91z"/>
	</g>
	<g>
		<path class="st0" d="M91.92,146.6H80.55l-30.62,74.22h9.06c2.96,0,5.62-1.82,6.69-4.57L86,164.18l20.42,52.08
			c1.08,2.75,3.73,4.56,6.69,4.56h9.42L91.92,146.6z"/>
		<path class="st0" d="M127.33,184.06v-0.21c0-20.17,15.44-37.25,37.15-37.25c12.55,0,20.27,3.5,27.68,9.78l-2.39,2.85
			c-2.97,3.55-8,4.38-12.08,2.18c-3.75-2.02-8.02-3.18-13.73-3.18c-13.27,0-23.36,11.63-23.36,25.42v0.21
			c0,14.82,9.78,25.73,24.49,25.73c6.79,0,12.97-2.16,17.39-5.45v-13.48h-9.41c-4.97,0-9.01-4.03-9.01-9.01v-2.01h30.67v30.25
			c-7.1,6.07-17.29,11.22-30.05,11.22C142.14,221.11,127.33,205.05,127.33,184.06z"/>
		<path class="st0" d="M220.87,147.84h3.68v62.77c0,5.12-4.15,9.26-9.26,9.26h-3.39v-63.06
			C211.9,151.86,215.92,147.84,220.87,147.84z"/>
		<path class="st0" d="M253.13,147.84h3.31v60.51h37.87v2.11c0,5.2-4.21,9.41-9.41,9.41h-41.11v-62.69
			C243.79,152.02,247.97,147.84,253.13,147.84z"/>
		<path class="st0" d="M316.35,147.84h44.53v2.31c0,4.97-4.03,9.01-9.01,9.01h-31.74v18.73h36.12v1.95c0,5.18-4.2,9.37-9.37,9.37
			h-26.75v19.35h41.26v1.9c0,5.2-4.22,9.42-9.42,9.42h-44.5v-63.15C307.47,151.81,311.45,147.84,316.35,147.84z"/>
	</g>
	<g>
		<path class="st1" d="M58.98,122.73c0,2.84-1.37,4.18-3.38,4.18c-1.8,0-3.05-0.92-4.3-2.5l-2.47,2.54c1.4,1.92,3.54,3.45,6.83,3.45
			c2.14,0,3.94-0.63,5.19-1.9c1.25-1.27,1.98-3.14,1.98-5.67v-14.08h-3.85V122.73z"/>
		<path class="st1" d="M76.63,127c-4.09,0-7.05-3.42-7.05-7.61v-0.06c0-4.18,2.96-7.53,7.05-7.53c2.44,0,4.27,1.07,5.98,2.65
			l2.41-2.76c-2.04-1.95-4.42-3.32-8.36-3.32c-6.47,0-11.01,4.97-11.01,11.04v0.06c0,6.13,4.64,10.99,10.86,10.99
			c4,0,6.44-1.46,8.66-3.78l-2.41-2.44C80.93,125.95,79.26,127.01,76.63,127"/>
		<path class="st1" d="M102.86,110.06l-5.89,15.09l-5.92-15.09c-0.31-0.8-1.08-1.32-1.94-1.32h-2.73l8.87,21.51h3.3l8.87-21.51
			h-2.64C103.94,108.74,103.17,109.26,102.86,110.06z"/>
	</g>
	<path class="st0" d="M114.76,108.74h-3.29l-8.87,21.51h2.62c0.86,0,1.63-0.53,1.94-1.32l5.89-15.09l5.92,15.09
		c0.31,0.8,1.08,1.32,1.94,1.32h2.73L114.76,108.74z"/>
	<g>
		<path class="st2" d="M58.98,220.85c2.96,0,5.62-1.82,6.69-4.57l5.08-13.02c-4.47,0.05-9.01,0.08-13.62,0.11l-7.21,17.48H58.98z"/>
		<path class="st2" d="M106.42,216.28c1.08,2.75,3.73,4.56,6.69,4.56h9.42l-7.58-18.38c-4.52,0.12-9.14,0.23-13.82,0.33
			L106.42,216.28z"/>
		<path class="st2" d="M164.68,221.13c12.76,0,22.95-5.14,30.05-11.22v-11.04c-3.99,0.27-8.08,0.52-12.25,0.77v4.51
			c-4.42,3.29-10.6,5.45-17.39,5.45c-7.82,0-14.24-3.08-18.55-8.19c-4.93,0.2-9.96,0.38-15.1,0.56
			C137.33,213.54,149.18,221.13,164.68,221.13z"/>
		<path class="st2" d="M215.29,219.89c5.12,0,9.26-4.15,9.26-9.26v-14.04c-4.11,0.36-8.32,0.71-12.66,1.04v22.26H215.29z"/>
		<path class="st2" d="M284.9,219.89c5.2,0,9.41-4.21,9.41-9.41v-2.11h-37.87v-15c-4.08,0.47-8.3,0.94-12.66,1.39v25.14H284.9z"/>
		<path class="st2" d="M351.97,219.89c5.2,0,9.42-4.22,9.42-9.42v-1.9h-41.26v-19.35h26.75c5.18,0,9.37-4.2,9.37-9.37v-1.95h-14.62
			c-8.86,2.55-20.06,5.25-34.16,7.9v34.08H351.97z"/>
	</g>
</g>
</svg>
