<?xml version="1.0" encoding="utf-8"?>
<!-- Generator: Adobe Illustrator 25.2.1, SVG Export Plug-In . SVG Version: 6.00 Build 0)  -->
<svg version="1.1" id="Layer_1" xmlns="http://www.w3.org/2000/svg" xmlns:xlink="http://www.w3.org/1999/xlink" x="0px" y="0px"
	 viewBox="0 0 412.1 270" style="enable-background:new 0 0 412.1 270;" xml:space="preserve">
<style type="text/css">
	.st0{fill:#7FB1FF;}
	.st1{fill:#577897;}
	.st2{fill:#58595B;}
	.st3{fill:#F79420;}
	.st4{fill:none;}
</style>
<g>
	<g>
		<g>
			<path class="st0" d="M297.8,119.9c-2.8,0-5.1,2.3-5.1,5.1c0,2.8,2.3,5.1,5.1,5.1c2.8,0,5.1-2.3,5.1-5.1c0,0,0,0,0,0
				C302.9,122.2,300.6,119.9,297.8,119.9C297.8,119.9,297.8,119.9,297.8,119.9z"/>
			<path class="st0" d="M312.1,91.4c-2.8,0-5.1,2.3-5.1,5.1c0,2.8,2.3,5.1,5.1,5.1c2.8,0,5.1-2.3,5.1-5.1c0,0,0,0,0,0
				C317.2,93.7,314.9,91.4,312.1,91.4C312.1,91.4,312.1,91.4,312.1,91.4z"/>
			<path class="st0" d="M312.1,105.7c-2.8,0-5.1,2.3-5.1,5.1c0,2.8,2.3,5.1,5.1,5.1c2.8,0,5.1-2.3,5.1-5.1c0,0,0,0,0,0
				C317.2,107.9,314.9,105.7,312.1,105.7C312.1,105.7,312.1,105.7,312.1,105.7z"/>
			<path class="st0" d="M326.3,105.7c-2.8,0-5.1,2.3-5.1,5.1c0,2.8,2.3,5.1,5.1,5.1c2.8,0,5.1-2.3,5.1-5.1c0,0,0,0,0,0
				C331.4,107.9,329.1,105.7,326.3,105.7L326.3,105.7z"/>
			<path class="st0" d="M297.8,77.1c-2.8,0-5.1,2.3-5.1,5.1c0,2.8,2.3,5.1,5.1,5.1c2.8,0,5.1-2.3,5.1-5.1c0,0,0,0,0,0
				C302.9,79.4,300.6,77.1,297.8,77.1C297.8,77.1,297.8,77.1,297.8,77.1z"/>
			<path class="st0" d="M312.1,119.9c-2.8,0-5.1,2.3-5.1,5.1c0,2.8,2.3,5.1,5.1,5.1c2.8,0,5.1-2.3,5.1-5.1c0,0,0,0,0,0
				C317.2,122.2,314.9,119.9,312.1,119.9C312.1,119.9,312.1,119.9,312.1,119.9z"/>
			<path class="st0" d="M297.8,91.4c-2.8,0-5.1,2.3-5.1,5.1c0,2.8,2.3,5.1,5.1,5.1c2.8,0,5.1-2.3,5.1-5.1c0,0,0,0,0,0
				C302.9,93.7,300.6,91.4,297.8,91.4C297.8,91.4,297.8,91.4,297.8,91.4z"/>
			<path class="st0" d="M297.8,105.7c-2.8,0-5.1,2.3-5.1,5.1c0,2.8,2.3,5.1,5.1,5.1c2.8,0,5.1-2.3,5.1-5.1c0,0,0,0,0,0
				C302.9,107.9,300.6,105.7,297.8,105.7C297.8,105.7,297.8,105.7,297.8,105.7z"/>
			<circle class="st0" cx="326.6" cy="96.5" r="5.1"/>
			<circle class="st1" cx="326.6" cy="125" r="5.1"/>
			<circle class="st0" cx="326.6" cy="82.2" r="5.1"/>
			<circle class="st0" cx="312.3" cy="82.2" r="5.1"/>
			<path class="st1" d="M340.9,119.9c-2.8,0-5.1,2.3-5.1,5.1c0,2.8,2.3,5.1,5.1,5.1c2.8,0,5.1-2.3,5.1-5.1c0,0,0,0,0,0
				C346,122.2,343.7,119.9,340.9,119.9C340.9,119.9,340.9,119.9,340.9,119.9z"/>
			<path class="st1" d="M355.2,91.4c-2.8,0-5.1,2.3-5.1,5.1c0,2.8,2.3,5.1,5.1,5.1c2.8,0,5.1-2.3,5.1-5.1c0,0,0,0,0,0
				C360.3,93.7,358,91.4,355.2,91.4C355.2,91.4,355.2,91.4,355.2,91.4z"/>
			<path class="st1" d="M355.2,105.7c-2.8,0-5.1,2.3-5.1,5.1c0,2.8,2.3,5.1,5.1,5.1c2.8,0,5.1-2.3,5.1-5.1c0,0,0,0,0,0
				C360.3,107.9,358,105.7,355.2,105.7C355.2,105.7,355.2,105.7,355.2,105.7z"/>
			<path class="st0" d="M340.9,77.1c-2.8,0-5.1,2.3-5.1,5.1c0,2.8,2.3,5.1,5.1,5.1c2.8,0,5.1-2.3,5.1-5.1c0,0,0,0,0,0
				C346,79.4,343.7,77.1,340.9,77.1C340.9,77.1,340.9,77.1,340.9,77.1z"/>
			<path class="st1" d="M355,77.1c-2.8,0-5.1,2.3-5.1,5.1c0,2.8,2.3,5.1,5.1,5.1c2.8,0,5.1-2.3,5.1-5.1c0,0,0,0,0,0
				C360.1,79.4,357.8,77.1,355,77.1C355,77.1,355,77.1,355,77.1z"/>
			<path class="st1" d="M355.2,119.9c-2.8,0-5.1,2.3-5.1,5.1c0,2.8,2.3,5.1,5.1,5.1c2.8,0,5.1-2.3,5.1-5.1c0,0,0,0,0,0
				C360.3,122.2,358,119.9,355.2,119.9C355.2,119.9,355.2,119.9,355.2,119.9z"/>
			<path class="st0" d="M340.9,91.4c-2.8,0-5.1,2.3-5.1,5.1c0,2.8,2.3,5.1,5.1,5.1c2.8,0,5.1-2.3,5.1-5.1c0,0,0,0,0,0
				C346,93.7,343.7,91.4,340.9,91.4C340.9,91.4,340.9,91.4,340.9,91.4z"/>
			<path class="st1" d="M340.9,105.7c-2.8,0-5.1,2.3-5.1,5.1c0,2.8,2.3,5.1,5.1,5.1c2.8,0,5.1-2.3,5.1-5.1c0,0,0,0,0,0
				C346,107.9,343.7,105.7,340.9,105.7C340.9,105.7,340.9,105.7,340.9,105.7z"/>
		</g>
		<g>
			<path class="st1" d="M308.6,70.9l-9.1,0c0-8.7,5.7-25.1,27-25.1c21.4,0,27,16.4,27,25.1h-9.1c0-1.6-0.7-16-17.9-16
				C309.3,54.8,308.6,69.2,308.6,70.9z"/>
		</g>
	</g>
	<path class="st1" d="M148.7,145h-10.6l-28.6,69.4h8.5c2.8,0,5.2-1.7,6.3-4.3l19-48.7l19.1,48.7c1,2.6,3.5,4.3,6.2,4.3h8.8
		L148.7,145z"/>
	<path class="st1" d="M74.9,214.4h10.6l28.6-69.4h-8.5c-2.8,0-5.2,1.7-6.3,4.3l-19,48.7l-19.1-48.7c-1-2.6-3.5-4.3-6.2-4.3h-8.8
		L74.9,214.4z"/>
	<g>
		<path class="st2" d="M54,122.7c0,2.7-1.3,4-3.3,4c-1.7,0-2.9-0.9-4.1-2.4l-2.4,2.4c1.4,1.9,3.4,3.3,6.6,3.3c2.1,0,3.8-0.6,5-1.8
			c1.2-1.2,1.9-3,1.9-5.5v-13.6H54V122.7z"/>
		<path class="st2" d="M71,126.8c-3.9,0-6.8-3.3-6.8-7.3v-0.1c0-4,2.9-7.3,6.8-7.3c2.4,0,4.1,1,5.8,2.6l2.3-2.7
			c-2-1.9-4.3-3.2-8.1-3.2c-6.2,0-10.6,4.8-10.6,10.6v0.1c0,5.9,4.5,10.6,10.5,10.6c3.9,0,6.2-1.4,8.3-3.6l-2.3-2.4
			C75.1,125.8,73.5,126.8,71,126.8"/>
		<path class="st2" d="M96.3,110.5L90.6,125l-5.7-14.5c-0.3-0.8-1-1.3-1.9-1.3h-2.6l8.6,20.7h3.2l8.6-20.7h-2.5
			C97.3,109.2,96.6,109.7,96.3,110.5z"/>
		<path class="st3" d="M107.7,109.2h-3.2L96,130h2.5c0.8,0,1.6-0.5,1.9-1.3l5.7-14.5l5.7,14.5c0.3,0.8,1,1.3,1.9,1.3h2.6
			L107.7,109.2z"/>
	</g>
	<g>
		<g>
			<g>
				<path class="st1" d="M184.2,184.3v-31.9c0-4.1,3.3-7.4,7.4-7.4h4.6v38.8c0,12.7,6.5,19.5,17.3,19.5c10.6,0,17.2-6.4,17.2-19
					v-31.9c0-4.1,3.3-7.4,7.4-7.4h4.6v38.7c0,20.4-11.5,30.6-29.4,30.6C195.5,214.4,184.2,204.2,184.2,184.3z"/>
				<path class="st1" d="M266.4,145h4.7v57.4H307v3.3c0,4.2-3.4,7.6-7.6,7.6h-40.3v-61C259.1,148.3,262.4,145,266.4,145z"/>
				<path class="st1" d="M326.5,156.2h-21.7v-3.8c0-4,3.3-7.3,7.3-7.3h48.1v3.8c0,4-3.3,7.3-7.3,7.3h-14.4v49.6
					c0,4.2-3.4,7.5-7.5,7.5h-4.6V156.2z"/>
			</g>
		</g>
	</g>
	<g>
		<path class="st4" d="M81.8,194.4c-0.9,0-1.8,0-2.8,0l1.4,3.5L81.8,194.4z"/>
		<path class="st4" d="M213.5,203.4c9.8,0,16.2-5.5,17.1-16.3c-10.4,1-21.6,2-33.7,2.8C198.6,198.7,204.6,203.4,213.5,203.4z"/>
		<path class="st0" d="M162.2,210.1c1,2.6,3.5,4.3,6.2,4.3h8.8l-9.4-22.7c-4.1,0.2-8.4,0.4-12.7,0.6L162.2,210.1z"/>
		<path class="st0" d="M117.9,214.4c2.8,0,5.2-1.7,6.3-4.3l6.6-16.9c-4.2,0.1-8.4,0.3-12.7,0.4l-8.6,20.7H117.9z"/>
		<path class="st0" d="M85.5,214.4l8.3-20.2c-4,0.1-8,0.1-12,0.2l-1.4,3.5l-1.4-3.5c-4.1,0.1-8.2,0.1-12.3,0.1l8.2,19.8H85.5z"/>
		<path class="st0" d="M213.3,214.4c17.3,0,28.6-9.6,29.3-28.6c-3.9,0.4-7.9,0.8-12.1,1.2c-0.9,10.8-7.2,16.3-17.1,16.3
			c-8.9,0-14.9-4.7-16.7-13.5c-4,0.3-8,0.6-12.1,0.8C186.8,206.3,197.5,214.4,213.3,214.4z"/>
		<path class="st0" d="M299.4,213.3c4.2,0,7.6-3.4,7.6-7.6v-3.3h-35.9v-20.2c-3.8,0.5-7.8,1.1-12,1.6v29.5H299.4z"/>
		<path class="st0" d="M331.1,213.3c4.2,0,7.5-3.4,7.5-7.5v-37.9c-3.5,1.1-7.5,2.3-12.1,3.6v41.8H331.1z"/>
	</g>
</g>
</svg>
